<?xml version="1.0" standalone="no"?><!DOCTYPE svg PUBLIC "-//W3C//DTD SVG 1.1//EN" "http://www.w3.org/Graphics/SVG/1.1/DTD/svg11.dtd"><svg t="1578582614753" class="icon" viewBox="0 0 1024 1024" version="1.1" xmlns="http://www.w3.org/2000/svg" p-id="10347" xmlns:xlink="http://www.w3.org/1999/xlink" width="16" height="16"><defs><style type="text/css"></style></defs><path d="M639.985762 213.42351h-42.661921V170.761589h42.661921m-213.309603 42.661921H384.014238V170.761589h42.661921m235.92042-78.497933L718.483695 36.37654c8.105765-8.105765 8.105765-21.757579 0-30.289964a21.885565 21.885565 0 0 0-30.289963 0l-63.139643 63.139643C590.924553 52.58807 552.528825 42.775828 512 42.775828c-40.955444 0-79.351172 9.812242-113.480709 26.87701L334.95303 6.086576a21.373622 21.373622 0 0 0-29.863345 0c-8.532384 8.532384-8.532384 22.184199 0 30.289964l55.887116 55.887116C297.41054 139.191768 256.028477 213.42351 256.028477 298.747351h511.943046c0-85.323841-42.661921-159.982202-105.374944-206.483695M874.626324 341.409272A63.992881 63.992881 0 0 0 810.633444 405.402152v298.633444a63.992881 63.992881 0 0 0 63.99288 63.992881 63.992881 63.992881 0 0 0 63.992881-63.992881v-298.633444A63.992881 63.992881 0 0 0 874.626324 341.409272m-725.252648 0A63.992881 63.992881 0 0 0 85.380795 405.402152v298.633444A63.992881 63.992881 0 0 0 149.373676 768.028477 63.992881 63.992881 0 0 0 213.366556 704.035596v-298.633444A63.992881 63.992881 0 0 0 149.373676 341.409272M256.028477 768.028477a42.661921 42.661921 0 0 0 42.66192 42.66192h42.661921v149.316722A63.992881 63.992881 0 0 0 405.345199 1024a63.992881 63.992881 0 0 0 63.99288-63.992881V810.690397h85.323842v149.316722a63.992881 63.992881 0 0 0 63.99288 63.992881 63.992881 63.992881 0 0 0 63.992881-63.992881V810.690397h42.661921a42.661921 42.661921 0 0 0 42.66192-42.66192V341.409272H256.028477v426.619205z" fill="" p-id="10348"></path></svg>