<?xml version="1.0" standalone="no"?><!DOCTYPE svg PUBLIC "-//W3C//DTD SVG 1.1//EN" "http://www.w3.org/Graphics/SVG/1.1/DTD/svg11.dtd"><svg t="1578582661007" class="icon" viewBox="0 0 1024 1024" version="1.1" xmlns="http://www.w3.org/2000/svg" p-id="11838" xmlns:xlink="http://www.w3.org/1999/xlink" width="16" height="16"><defs><style type="text/css"></style></defs><path d="M92.8 36.571429l75.428571 853.257142L512 987.428571l342.4-97.6L931.314286 36.571429H92.8z m680 202.4l-5.485714 53.942857-1.942857 22.285714H363.771429l9.371428 107.657143h382.971429l-3.771429 27.771428-24.228571 276.8-1.942857 18.514286-213.714286 58.971429v0.342857h-1.371429l-0.342857 0.114286v-0.114286h-0.114286l-215.542857-59.428572L282.057143 580.571429h104.114286l7.428571 83.657142 117.028571 31.657143h0.457143l116.571429-31.542857 13.028571-135.542857H510.742857v-0.114286H276.571429l-26.057143-289.714285-1.942857-27.771429h526.057142l-1.828571 27.771429z" p-id="11839"></path></svg>